solid CATIA STL
  facet normal  0.000000e+000  -0.000000e+000  1.000000e+000
    outer loop
      vertex -9.184851e-015 -5.000000e+001  3.000000e+001
      vertex  8.682409e+000 -4.924039e+001  3.000000e+001
      vertex  1.710101e+001 -4.698463e+001  3.000000e+001
    endloop
  endfacet
  facet normal  0.000000e+000  -0.000000e+000  1.000000e+000
    outer loop
      vertex -9.184851e-015 -5.000000e+001  3.000000e+001
      vertex  1.710101e+001 -4.698463e+001  3.000000e+001
      vertex  2.500000e+001 -4.330127e+001  3.000000e+001
    endloop
  endfacet
  facet normal  0.000000e+000  -0.000000e+000  1.000000e+000
    outer loop
      vertex -9.184851e-015 -5.000000e+001  3.000000e+001
      vertex  2.500000e+001 -4.330127e+001  3.000000e+001
      vertex  3.213938e+001 -3.830222e+001  3.000000e+001
    endloop
  endfacet
  facet normal  0.000000e+000  0.000000e+000  9.999999e-001
    outer loop
      vertex -9.184851e-015 -5.000000e+001  3.000000e+001
      vertex  3.213938e+001 -3.830222e+001  3.000000e+001
      vertex  3.658496e+000 -3.480827e+001  3.000000e+001
    endloop
  endfacet
  facet normal  0.000000e+000  0.000000e+000  1.000000e+000
    outer loop
      vertex -9.184851e-015 -5.000000e+001  3.000000e+001
      vertex  3.658496e+000 -3.480827e+001  3.000000e+001
      vertex -3.658496e+000 -3.480827e+001  3.000000e+001
    endloop
  endfacet
  facet normal  0.000000e+000  0.000000e+000  9.999999e-001
    outer loop
      vertex -9.184851e-015 -5.000000e+001  3.000000e+001
      vertex -3.658496e+000 -3.480827e+001  3.000000e+001
      vertex -3.213938e+001 -3.830222e+001  3.000000e+001
    endloop
  endfacet
  facet normal  0.000000e+000  0.000000e+000  1.000000e+000
    outer loop
      vertex -9.184851e-015 -5.000000e+001  3.000000e+001
      vertex -3.213938e+001 -3.830222e+001  3.000000e+001
      vertex -2.500000e+001 -4.330127e+001  3.000000e+001
    endloop
  endfacet
  facet normal  0.000000e+000  0.000000e+000  1.000000e+000
    outer loop
      vertex -9.184851e-015 -5.000000e+001  3.000000e+001
      vertex -2.500000e+001 -4.330127e+001  3.000000e+001
      vertex -1.710101e+001 -4.698463e+001  3.000000e+001
    endloop
  endfacet
  facet normal  0.000000e+000  0.000000e+000  1.000000e+000
    outer loop
      vertex -9.184851e-015 -5.000000e+001  3.000000e+001
      vertex -1.710101e+001 -4.698463e+001  3.000000e+001
      vertex -8.682409e+000 -4.924039e+001  3.000000e+001
    endloop
  endfacet
  facet normal  0.000000e+000  0.000000e+000  1.000000e+000
    outer loop
      vertex -3.213938e+001 -3.830222e+001  3.000000e+001
      vertex -3.658496e+000 -3.480827e+001  3.000000e+001
      vertex -3.830222e+001 -3.213938e+001  3.000000e+001
    endloop
  endfacet
  facet normal  0.000000e+000  0.000000e+000  1.000000e+000
    outer loop
      vertex -3.830222e+001 -3.213938e+001  3.000000e+001
      vertex -3.658496e+000 -3.480827e+001  3.000000e+001
      vertex -1.081559e+001 -3.328698e+001  3.000000e+001
    endloop
  endfacet
  facet normal  0.000000e+000  0.000000e+000  1.000000e+000
    outer loop
      vertex -3.830222e+001 -3.213938e+001  3.000000e+001
      vertex -1.081559e+001 -3.328698e+001  3.000000e+001
      vertex -1.750000e+001 -3.031089e+001  3.000000e+001
    endloop
  endfacet
  facet normal  0.000000e+000  0.000000e+000  1.000000e+000
    outer loop
      vertex -1.710101e+001  4.698463e+001  3.000000e+001
      vertex -2.500000e+001  4.330127e+001  3.000000e+001
      vertex -8.682409e+000  4.924039e+001  3.000000e+001
    endloop
  endfacet
  facet normal  0.000000e+000  0.000000e+000  1.000000e+000
    outer loop
      vertex -8.682409e+000  4.924039e+001  3.000000e+001
      vertex -2.500000e+001  4.330127e+001  3.000000e+001
      vertex -3.213938e+001  3.830222e+001  3.000000e+001
    endloop
  endfacet
  facet normal  0.000000e+000  0.000000e+000  1.000000e+000
    outer loop
      vertex -8.682409e+000  4.924039e+001  3.000000e+001
      vertex -3.213938e+001  3.830222e+001  3.000000e+001
      vertex  3.061617e-015  5.000000e+001  3.000000e+001
    endloop
  endfacet
  facet normal  0.000000e+000  0.000000e+000  9.999999e-001
    outer loop
      vertex  3.061617e-015  5.000000e+001  3.000000e+001
      vertex -3.213938e+001  3.830222e+001  3.000000e+001
      vertex -3.658496e+000  3.480827e+001  3.000000e+001
    endloop
  endfacet
  facet normal  0.000000e+000  0.000000e+000  1.000000e+000
    outer loop
      vertex  3.061617e-015  5.000000e+001  3.000000e+001
      vertex -3.658496e+000  3.480827e+001  3.000000e+001
      vertex  8.682409e+000  4.924039e+001  3.000000e+001
    endloop
  endfacet
  facet normal  0.000000e+000  0.000000e+000  1.000000e+000
    outer loop
      vertex  8.682409e+000  4.924039e+001  3.000000e+001
      vertex -3.658496e+000  3.480827e+001  3.000000e+001
      vertex  3.658496e+000  3.480827e+001  3.000000e+001
    endloop
  endfacet
  facet normal  0.000000e+000  0.000000e+000  1.000000e+000
    outer loop
      vertex  8.682409e+000  4.924039e+001  3.000000e+001
      vertex  3.658496e+000  3.480827e+001  3.000000e+001
      vertex  1.710101e+001  4.698463e+001  3.000000e+001
    endloop
  endfacet
  facet normal  0.000000e+000  0.000000e+000  1.000000e+000
    outer loop
      vertex  2.500000e+001  4.330127e+001  3.000000e+001
      vertex  1.710101e+001  4.698463e+001  3.000000e+001
      vertex  3.213938e+001  3.830222e+001  3.000000e+001
    endloop
  endfacet
  facet normal  0.000000e+000  0.000000e+000  1.000000e+000
    outer loop
      vertex  3.213938e+001  3.830222e+001  3.000000e+001
      vertex  1.710101e+001  4.698463e+001  3.000000e+001
      vertex  3.658496e+000  3.480827e+001  3.000000e+001
    endloop
  endfacet
  facet normal  -0.000000e+000  0.000000e+000  1.000000e+000
    outer loop
      vertex  3.213938e+001  3.830222e+001  3.000000e+001
      vertex  3.658496e+000  3.480827e+001  3.000000e+001
      vertex  3.830222e+001  3.213938e+001  3.000000e+001
    endloop
  endfacet
  facet normal  0.000000e+000  0.000000e+000  1.000000e+000
    outer loop
      vertex  3.830222e+001  3.213938e+001  3.000000e+001
      vertex  3.658496e+000  3.480827e+001  3.000000e+001
      vertex  1.081559e+001  3.328698e+001  3.000000e+001
    endloop
  endfacet
  facet normal  0.000000e+000  0.000000e+000  1.000000e+000
    outer loop
      vertex  3.830222e+001  3.213938e+001  3.000000e+001
      vertex  1.081559e+001  3.328698e+001  3.000000e+001
      vertex  4.330127e+001  2.500000e+001  3.000000e+001
    endloop
  endfacet
  facet normal  0.000000e+000  0.000000e+000  1.000000e+000
    outer loop
      vertex  4.330127e+001  2.500000e+001  3.000000e+001
      vertex  1.081559e+001  3.328698e+001  3.000000e+001
      vertex  1.750000e+001  3.031089e+001  3.000000e+001
    endloop
  endfacet
  facet normal  0.000000e+000  0.000000e+000  1.000000e+000
    outer loop
      vertex  4.330127e+001  2.500000e+001  3.000000e+001
      vertex  1.750000e+001  3.031089e+001  3.000000e+001
      vertex  2.341957e+001  2.601007e+001  3.000000e+001
    endloop
  endfacet
  facet normal  0.000000e+000  0.000000e+000  1.000000e+000
    outer loop
      vertex -3.658496e+000  3.480827e+001  3.000000e+001
      vertex -3.213938e+001  3.830222e+001  3.000000e+001
      vertex -1.081559e+001  3.328698e+001  3.000000e+001
    endloop
  endfacet
  facet normal  0.000000e+000  0.000000e+000  1.000000e+000
    outer loop
      vertex -1.081559e+001  3.328698e+001  3.000000e+001
      vertex -3.213938e+001  3.830222e+001  3.000000e+001
      vertex -3.830222e+001  3.213938e+001  3.000000e+001
    endloop
  endfacet
  facet normal  -0.000000e+000  0.000000e+000  1.000000e+000
    outer loop
      vertex -1.081559e+001  3.328698e+001  3.000000e+001
      vertex -3.830222e+001  3.213938e+001  3.000000e+001
      vertex -1.750000e+001  3.031089e+001  3.000000e+001
    endloop
  endfacet
  facet normal  0.000000e+000  0.000000e+000  9.999999e-001
    outer loop
      vertex -1.750000e+001  3.031089e+001  3.000000e+001
      vertex -3.830222e+001  3.213938e+001  3.000000e+001
      vertex -4.330127e+001  2.500000e+001  3.000000e+001
    endloop
  endfacet
  facet normal  0.000000e+000  0.000000e+000  1.000000e+000
    outer loop
      vertex -1.750000e+001  3.031089e+001  3.000000e+001
      vertex -4.330127e+001  2.500000e+001  3.000000e+001
      vertex -2.341957e+001  2.601007e+001  3.000000e+001
    endloop
  endfacet
  facet normal  -0.000000e+000  0.000000e+000  1.000000e+000
    outer loop
      vertex -2.341957e+001  2.601007e+001  3.000000e+001
      vertex -4.330127e+001  2.500000e+001  3.000000e+001
      vertex -2.831560e+001  2.057248e+001  3.000000e+001
    endloop
  endfacet
  facet normal  0.000000e+000  0.000000e+000  1.000000e+000
    outer loop
      vertex -2.831560e+001  2.057248e+001  3.000000e+001
      vertex -4.330127e+001  2.500000e+001  3.000000e+001
      vertex -4.698463e+001  1.710101e+001  3.000000e+001
    endloop
  endfacet
  facet normal  -0.000000e+000  0.000000e+000  9.999999e-001
    outer loop
      vertex -2.831560e+001  2.057248e+001  3.000000e+001
      vertex -4.698463e+001  1.710101e+001  3.000000e+001
      vertex -3.197409e+001  1.423578e+001  3.000000e+001
    endloop
  endfacet
  facet normal  0.000000e+000  0.000000e+000  1.000000e+000
    outer loop
      vertex -3.197409e+001  1.423578e+001  3.000000e+001
      vertex -4.698463e+001  1.710101e+001  3.000000e+001
      vertex -3.423516e+001  7.276909e+000  3.000000e+001
    endloop
  endfacet
  facet normal  0.000000e+000  0.000000e+000  1.000000e+000
    outer loop
      vertex -3.423516e+001  7.276909e+000  3.000000e+001
      vertex -4.698463e+001  1.710101e+001  3.000000e+001
      vertex -4.924039e+001  8.682409e+000  3.000000e+001
    endloop
  endfacet
  facet normal  0.000000e+000  0.000000e+000  1.000000e+000
    outer loop
      vertex -3.423516e+001  7.276909e+000  3.000000e+001
      vertex -4.924039e+001  8.682409e+000  3.000000e+001
      vertex -3.500000e+001  4.286264e-015  3.000000e+001
    endloop
  endfacet
  facet normal  0.000000e+000  0.000000e+000  1.000000e+000
    outer loop
      vertex -3.500000e+001  4.286264e-015  3.000000e+001
      vertex -4.924039e+001  8.682409e+000  3.000000e+001
      vertex -5.000000e+001  6.123234e-015  3.000000e+001
    endloop
  endfacet
  facet normal  0.000000e+000  0.000000e+000  1.000000e+000
    outer loop
      vertex -3.500000e+001  4.286264e-015  3.000000e+001
      vertex -5.000000e+001  6.123234e-015  3.000000e+001
      vertex -3.423516e+001 -7.276909e+000  3.000000e+001
    endloop
  endfacet
  facet normal  0.000000e+000  0.000000e+000  1.000000e+000
    outer loop
      vertex -3.423516e+001 -7.276909e+000  3.000000e+001
      vertex -5.000000e+001  6.123234e-015  3.000000e+001
      vertex -4.924039e+001 -8.682409e+000  3.000000e+001
    endloop
  endfacet
  facet normal  -0.000000e+000  0.000000e+000  1.000000e+000
    outer loop
      vertex -3.423516e+001 -7.276909e+000  3.000000e+001
      vertex -4.924039e+001 -8.682409e+000  3.000000e+001
      vertex -3.197409e+001 -1.423578e+001  3.000000e+001
    endloop
  endfacet
  facet normal  0.000000e+000  0.000000e+000  1.000000e+000
    outer loop
      vertex -3.197409e+001 -1.423578e+001  3.000000e+001
      vertex -4.924039e+001 -8.682409e+000  3.000000e+001
      vertex -4.698463e+001 -1.710101e+001  3.000000e+001
    endloop
  endfacet
  facet normal  -0.000000e+000  0.000000e+000  9.999999e-001
    outer loop
      vertex -3.197409e+001 -1.423578e+001  3.000000e+001
      vertex -4.698463e+001 -1.710101e+001  3.000000e+001
      vertex -2.831560e+001 -2.057248e+001  3.000000e+001
    endloop
  endfacet
  facet normal  0.000000e+000  0.000000e+000  1.000000e+000
    outer loop
      vertex -2.831560e+001 -2.057248e+001  3.000000e+001
      vertex -4.698463e+001 -1.710101e+001  3.000000e+001
      vertex -4.330127e+001 -2.500000e+001  3.000000e+001
    endloop
  endfacet
  facet normal  -0.000000e+000  0.000000e+000  1.000000e+000
    outer loop
      vertex -2.831560e+001 -2.057248e+001  3.000000e+001
      vertex -4.330127e+001 -2.500000e+001  3.000000e+001
      vertex -2.341957e+001 -2.601007e+001  3.000000e+001
    endloop
  endfacet
  facet normal  0.000000e+000  0.000000e+000  9.999999e-001
    outer loop
      vertex -3.830222e+001 -3.213938e+001  3.000000e+001
      vertex -1.750000e+001 -3.031089e+001  3.000000e+001
      vertex -4.330127e+001 -2.500000e+001  3.000000e+001
    endloop
  endfacet
  facet normal  0.000000e+000  0.000000e+000  1.000000e+000
    outer loop
      vertex -4.330127e+001 -2.500000e+001  3.000000e+001
      vertex -1.750000e+001 -3.031089e+001  3.000000e+001
      vertex -2.341957e+001 -2.601007e+001  3.000000e+001
    endloop
  endfacet
  facet normal  0.000000e+000  0.000000e+000  1.000000e+000
    outer loop
      vertex  4.330127e+001  2.500000e+001  3.000000e+001
      vertex  2.341957e+001  2.601007e+001  3.000000e+001
      vertex  4.698463e+001  1.710101e+001  3.000000e+001
    endloop
  endfacet
  facet normal  0.000000e+000  0.000000e+000  1.000000e+000
    outer loop
      vertex  4.698463e+001  1.710101e+001  3.000000e+001
      vertex  2.341957e+001  2.601007e+001  3.000000e+001
      vertex  2.831560e+001  2.057248e+001  3.000000e+001
    endloop
  endfacet
  facet normal  0.000000e+000  0.000000e+000  9.999999e-001
    outer loop
      vertex  4.698463e+001  1.710101e+001  3.000000e+001
      vertex  2.831560e+001  2.057248e+001  3.000000e+001
      vertex  3.197409e+001  1.423578e+001  3.000000e+001
    endloop
  endfacet
  facet normal  -0.000000e+000  0.000000e+000  1.000000e+000
    outer loop
      vertex  4.698463e+001  1.710101e+001  3.000000e+001
      vertex  3.197409e+001  1.423578e+001  3.000000e+001
      vertex  4.924039e+001  8.682409e+000  3.000000e+001
    endloop
  endfacet
  facet normal  0.000000e+000  0.000000e+000  1.000000e+000
    outer loop
      vertex  4.924039e+001  8.682409e+000  3.000000e+001
      vertex  3.197409e+001  1.423578e+001  3.000000e+001
      vertex  3.423516e+001  7.276909e+000  3.000000e+001
    endloop
  endfacet
  facet normal  -0.000000e+000  0.000000e+000  1.000000e+000
    outer loop
      vertex  4.924039e+001  8.682409e+000  3.000000e+001
      vertex  3.423516e+001  7.276909e+000  3.000000e+001
      vertex  5.000000e+001  0.000000e+000  3.000000e+001
    endloop
  endfacet
  facet normal  0.000000e+000  0.000000e+000  1.000000e+000
    outer loop
      vertex  5.000000e+001  0.000000e+000  3.000000e+001
      vertex  3.423516e+001  7.276909e+000  3.000000e+001
      vertex  3.500000e+001  0.000000e+000  3.000000e+001
    endloop
  endfacet
  facet normal  -0.000000e+000  0.000000e+000  1.000000e+000
    outer loop
      vertex  5.000000e+001  0.000000e+000  3.000000e+001
      vertex  3.500000e+001  0.000000e+000  3.000000e+001
      vertex  4.924039e+001 -8.682409e+000  3.000000e+001
    endloop
  endfacet
  facet normal  0.000000e+000  0.000000e+000  1.000000e+000
    outer loop
      vertex  4.924039e+001 -8.682409e+000  3.000000e+001
      vertex  3.500000e+001  0.000000e+000  3.000000e+001
      vertex  3.423516e+001 -7.276909e+000  3.000000e+001
    endloop
  endfacet
  facet normal  0.000000e+000  0.000000e+000  1.000000e+000
    outer loop
      vertex  4.924039e+001 -8.682409e+000  3.000000e+001
      vertex  3.423516e+001 -7.276909e+000  3.000000e+001
      vertex  4.698463e+001 -1.710101e+001  3.000000e+001
    endloop
  endfacet
  facet normal  0.000000e+000  0.000000e+000  1.000000e+000
    outer loop
      vertex  4.698463e+001 -1.710101e+001  3.000000e+001
      vertex  3.423516e+001 -7.276909e+000  3.000000e+001
      vertex  3.197409e+001 -1.423578e+001  3.000000e+001
    endloop
  endfacet
  facet normal  0.000000e+000  0.000000e+000  1.000000e+000
    outer loop
      vertex  4.698463e+001 -1.710101e+001  3.000000e+001
      vertex  3.197409e+001 -1.423578e+001  3.000000e+001
      vertex  4.330127e+001 -2.500000e+001  3.000000e+001
    endloop
  endfacet
  facet normal  0.000000e+000  0.000000e+000  1.000000e+000
    outer loop
      vertex  4.330127e+001 -2.500000e+001  3.000000e+001
      vertex  3.197409e+001 -1.423578e+001  3.000000e+001
      vertex  2.831560e+001 -2.057248e+001  3.000000e+001
    endloop
  endfacet
  facet normal  0.000000e+000  0.000000e+000  1.000000e+000
    outer loop
      vertex  4.330127e+001 -2.500000e+001  3.000000e+001
      vertex  2.831560e+001 -2.057248e+001  3.000000e+001
      vertex  2.341957e+001 -2.601007e+001  3.000000e+001
    endloop
  endfacet
  facet normal  -0.000000e+000  0.000000e+000  1.000000e+000
    outer loop
      vertex  4.330127e+001 -2.500000e+001  3.000000e+001
      vertex  2.341957e+001 -2.601007e+001  3.000000e+001
      vertex  3.830222e+001 -3.213938e+001  3.000000e+001
    endloop
  endfacet
  facet normal  0.000000e+000  0.000000e+000  1.000000e+000
    outer loop
      vertex  3.830222e+001 -3.213938e+001  3.000000e+001
      vertex  2.341957e+001 -2.601007e+001  3.000000e+001
      vertex  1.750000e+001 -3.031089e+001  3.000000e+001
    endloop
  endfacet
  facet normal  0.000000e+000  0.000000e+000  1.000000e+000
    outer loop
      vertex  3.830222e+001 -3.213938e+001  3.000000e+001
      vertex  1.750000e+001 -3.031089e+001  3.000000e+001
      vertex  1.081559e+001 -3.328698e+001  3.000000e+001
    endloop
  endfacet
  facet normal  0.000000e+000  0.000000e+000  1.000000e+000
    outer loop
      vertex  1.081559e+001 -3.328698e+001  3.000000e+001
      vertex  3.658496e+000 -3.480827e+001  3.000000e+001
      vertex  3.830222e+001 -3.213938e+001  3.000000e+001
    endloop
  endfacet
  facet normal  0.000000e+000  0.000000e+000  1.000000e+000
    outer loop
      vertex  3.830222e+001 -3.213938e+001  3.000000e+001
      vertex  3.658496e+000 -3.480827e+001  3.000000e+001
      vertex  3.213938e+001 -3.830222e+001  3.000000e+001
    endloop
  endfacet
  facet normal  0.000000e+000  0.000000e+000 -1.000000e+000
    outer loop
      vertex -9.184851e-015 -5.000000e+001 -3.000000e+001
      vertex -8.682409e+000 -4.924039e+001 -3.000000e+001
      vertex -1.710101e+001 -4.698463e+001 -3.000000e+001
    endloop
  endfacet
  facet normal  0.000000e+000  0.000000e+000 -1.000000e+000
    outer loop
      vertex -9.184851e-015 -5.000000e+001 -3.000000e+001
      vertex -1.710101e+001 -4.698463e+001 -3.000000e+001
      vertex -2.500000e+001 -4.330127e+001 -3.000000e+001
    endloop
  endfacet
  facet normal  0.000000e+000  0.000000e+000 -1.000000e+000
    outer loop
      vertex -9.184851e-015 -5.000000e+001 -3.000000e+001
      vertex -2.500000e+001 -4.330127e+001 -3.000000e+001
      vertex -3.213938e+001 -3.830222e+001 -3.000000e+001
    endloop
  endfacet
  facet normal  0.000000e+000  0.000000e+000 -9.999999e-001
    outer loop
      vertex -9.184851e-015 -5.000000e+001 -3.000000e+001
      vertex -3.213938e+001 -3.830222e+001 -3.000000e+001
      vertex -3.658496e+000 -3.480827e+001 -3.000000e+001
    endloop
  endfacet
  facet normal  0.000000e+000  0.000000e+000 -1.000000e+000
    outer loop
      vertex -9.184851e-015 -5.000000e+001 -3.000000e+001
      vertex -3.658496e+000 -3.480827e+001 -3.000000e+001
      vertex  3.658496e+000 -3.480827e+001 -3.000000e+001
    endloop
  endfacet
  facet normal  0.000000e+000  -0.000000e+000 -9.999999e-001
    outer loop
      vertex -9.184851e-015 -5.000000e+001 -3.000000e+001
      vertex  3.658496e+000 -3.480827e+001 -3.000000e+001
      vertex  3.213938e+001 -3.830222e+001 -3.000000e+001
    endloop
  endfacet
  facet normal  0.000000e+000  0.000000e+000 -1.000000e+000
    outer loop
      vertex -9.184851e-015 -5.000000e+001 -3.000000e+001
      vertex  3.213938e+001 -3.830222e+001 -3.000000e+001
      vertex  2.500000e+001 -4.330127e+001 -3.000000e+001
    endloop
  endfacet
  facet normal  0.000000e+000  0.000000e+000 -1.000000e+000
    outer loop
      vertex -9.184851e-015 -5.000000e+001 -3.000000e+001
      vertex  2.500000e+001 -4.330127e+001 -3.000000e+001
      vertex  1.710101e+001 -4.698463e+001 -3.000000e+001
    endloop
  endfacet
  facet normal  0.000000e+000  0.000000e+000 -1.000000e+000
    outer loop
      vertex -9.184851e-015 -5.000000e+001 -3.000000e+001
      vertex  1.710101e+001 -4.698463e+001 -3.000000e+001
      vertex  8.682409e+000 -4.924039e+001 -3.000000e+001
    endloop
  endfacet
  facet normal  0.000000e+000  0.000000e+000 -1.000000e+000
    outer loop
      vertex -3.658496e+000 -3.480827e+001 -3.000000e+001
      vertex -3.213938e+001 -3.830222e+001 -3.000000e+001
      vertex -1.081559e+001 -3.328698e+001 -3.000000e+001
    endloop
  endfacet
  facet normal  -0.000000e+000  0.000000e+000 -1.000000e+000
    outer loop
      vertex -1.081559e+001 -3.328698e+001 -3.000000e+001
      vertex -3.213938e+001 -3.830222e+001 -3.000000e+001
      vertex -3.830222e+001 -3.213938e+001 -3.000000e+001
    endloop
  endfacet
  facet normal  0.000000e+000  0.000000e+000 -1.000000e+000
    outer loop
      vertex -1.081559e+001 -3.328698e+001 -3.000000e+001
      vertex -3.830222e+001 -3.213938e+001 -3.000000e+001
      vertex -1.750000e+001 -3.031089e+001 -3.000000e+001
    endloop
  endfacet
  facet normal  0.000000e+000  0.000000e+000 -1.000000e+000
    outer loop
      vertex -2.500000e+001  4.330127e+001 -3.000000e+001
      vertex -1.710101e+001  4.698463e+001 -3.000000e+001
      vertex -3.213938e+001  3.830222e+001 -3.000000e+001
    endloop
  endfacet
  facet normal  0.000000e+000  0.000000e+000 -1.000000e+000
    outer loop
      vertex -3.213938e+001  3.830222e+001 -3.000000e+001
      vertex -1.710101e+001  4.698463e+001 -3.000000e+001
      vertex -8.682409e+000  4.924039e+001 -3.000000e+001
    endloop
  endfacet
  facet normal  0.000000e+000  -0.000000e+000 -9.999999e-001
    outer loop
      vertex -3.213938e+001  3.830222e+001 -3.000000e+001
      vertex -8.682409e+000  4.924039e+001 -3.000000e+001
      vertex -3.658496e+000  3.480827e+001 -3.000000e+001
    endloop
  endfacet
  facet normal  0.000000e+000  0.000000e+000 -1.000000e+000
    outer loop
      vertex -3.658496e+000  3.480827e+001 -3.000000e+001
      vertex -8.682409e+000  4.924039e+001 -3.000000e+001
      vertex  3.061617e-015  5.000000e+001 -3.000000e+001
    endloop
  endfacet
  facet normal  0.000000e+000  -0.000000e+000 -1.000000e+000
    outer loop
      vertex -3.658496e+000  3.480827e+001 -3.000000e+001
      vertex  3.061617e-015  5.000000e+001 -3.000000e+001
      vertex  3.658496e+000  3.480827e+001 -3.000000e+001
    endloop
  endfacet
  facet normal  0.000000e+000  0.000000e+000 -1.000000e+000
    outer loop
      vertex  3.658496e+000  3.480827e+001 -3.000000e+001
      vertex  3.061617e-015  5.000000e+001 -3.000000e+001
      vertex  8.682409e+000  4.924039e+001 -3.000000e+001
    endloop
  endfacet
  facet normal  0.000000e+000  -0.000000e+000 -1.000000e+000
    outer loop
      vertex  3.658496e+000  3.480827e+001 -3.000000e+001
      vertex  8.682409e+000  4.924039e+001 -3.000000e+001
      vertex  1.710101e+001  4.698463e+001 -3.000000e+001
    endloop
  endfacet
  facet normal  -0.000000e+000  0.000000e+000 -1.000000e+000
    outer loop
      vertex  1.710101e+001  4.698463e+001 -3.000000e+001
      vertex  2.500000e+001  4.330127e+001 -3.000000e+001
      vertex  3.658496e+000  3.480827e+001 -3.000000e+001
    endloop
  endfacet
  facet normal  0.000000e+000  0.000000e+000 -1.000000e+000
    outer loop
      vertex  3.658496e+000  3.480827e+001 -3.000000e+001
      vertex  2.500000e+001  4.330127e+001 -3.000000e+001
      vertex  3.213938e+001  3.830222e+001 -3.000000e+001
    endloop
  endfacet
  facet normal  0.000000e+000  0.000000e+000 -1.000000e+000
    outer loop
      vertex  3.658496e+000  3.480827e+001 -3.000000e+001
      vertex  3.213938e+001  3.830222e+001 -3.000000e+001
      vertex  1.081559e+001  3.328698e+001 -3.000000e+001
    endloop
  endfacet
  facet normal  0.000000e+000  0.000000e+000 -1.000000e+000
    outer loop
      vertex  1.081559e+001  3.328698e+001 -3.000000e+001
      vertex  3.213938e+001  3.830222e+001 -3.000000e+001
      vertex  3.830222e+001  3.213938e+001 -3.000000e+001
    endloop
  endfacet
  facet normal  -0.000000e+000  0.000000e+000 -1.000000e+000
    outer loop
      vertex  1.081559e+001  3.328698e+001 -3.000000e+001
      vertex  3.830222e+001  3.213938e+001 -3.000000e+001
      vertex  1.750000e+001  3.031089e+001 -3.000000e+001
    endloop
  endfacet
  facet normal  0.000000e+000  0.000000e+000 -9.999999e-001
    outer loop
      vertex  1.750000e+001  3.031089e+001 -3.000000e+001
      vertex  3.830222e+001  3.213938e+001 -3.000000e+001
      vertex  4.330127e+001  2.500000e+001 -3.000000e+001
    endloop
  endfacet
  facet normal  0.000000e+000  0.000000e+000 -1.000000e+000
    outer loop
      vertex  1.750000e+001  3.031089e+001 -3.000000e+001
      vertex  4.330127e+001  2.500000e+001 -3.000000e+001
      vertex  2.341957e+001  2.601007e+001 -3.000000e+001
    endloop
  endfacet
  facet normal  -0.000000e+000  0.000000e+000 -1.000000e+000
    outer loop
      vertex -3.213938e+001  3.830222e+001 -3.000000e+001
      vertex -3.658496e+000  3.480827e+001 -3.000000e+001
      vertex -3.830222e+001  3.213938e+001 -3.000000e+001
    endloop
  endfacet
  facet normal  0.000000e+000  0.000000e+000 -1.000000e+000
    outer loop
      vertex -3.830222e+001  3.213938e+001 -3.000000e+001
      vertex -3.658496e+000  3.480827e+001 -3.000000e+001
      vertex -1.081559e+001  3.328698e+001 -3.000000e+001
    endloop
  endfacet
  facet normal  0.000000e+000  0.000000e+000 -1.000000e+000
    outer loop
      vertex -3.830222e+001  3.213938e+001 -3.000000e+001
      vertex -1.081559e+001  3.328698e+001 -3.000000e+001
      vertex -4.330127e+001  2.500000e+001 -3.000000e+001
    endloop
  endfacet
  facet normal  0.000000e+000  0.000000e+000 -1.000000e+000
    outer loop
      vertex -4.330127e+001  2.500000e+001 -3.000000e+001
      vertex -1.081559e+001  3.328698e+001 -3.000000e+001
      vertex -1.750000e+001  3.031089e+001 -3.000000e+001
    endloop
  endfacet
  facet normal  0.000000e+000  0.000000e+000 -1.000000e+000
    outer loop
      vertex -4.330127e+001  2.500000e+001 -3.000000e+001
      vertex -1.750000e+001  3.031089e+001 -3.000000e+001
      vertex -2.341957e+001  2.601007e+001 -3.000000e+001
    endloop
  endfacet
  facet normal  0.000000e+000  0.000000e+000 -1.000000e+000
    outer loop
      vertex -4.330127e+001  2.500000e+001 -3.000000e+001
      vertex -2.341957e+001  2.601007e+001 -3.000000e+001
      vertex -4.698463e+001  1.710101e+001 -3.000000e+001
    endloop
  endfacet
  facet normal  0.000000e+000  0.000000e+000 -1.000000e+000
    outer loop
      vertex -4.698463e+001  1.710101e+001 -3.000000e+001
      vertex -2.341957e+001  2.601007e+001 -3.000000e+001
      vertex -2.831560e+001  2.057248e+001 -3.000000e+001
    endloop
  endfacet
  facet normal  0.000000e+000  0.000000e+000 -9.999999e-001
    outer loop
      vertex -4.698463e+001  1.710101e+001 -3.000000e+001
      vertex -2.831560e+001  2.057248e+001 -3.000000e+001
      vertex -3.197409e+001  1.423578e+001 -3.000000e+001
    endloop
  endfacet
  facet normal  -0.000000e+000  0.000000e+000 -1.000000e+000
    outer loop
      vertex -4.698463e+001  1.710101e+001 -3.000000e+001
      vertex -3.197409e+001  1.423578e+001 -3.000000e+001
      vertex -4.924039e+001  8.682409e+000 -3.000000e+001
    endloop
  endfacet
  facet normal  0.000000e+000  0.000000e+000 -1.000000e+000
    outer loop
      vertex -4.924039e+001  8.682409e+000 -3.000000e+001
      vertex -3.197409e+001  1.423578e+001 -3.000000e+001
      vertex -3.423516e+001  7.276909e+000 -3.000000e+001
    endloop
  endfacet
  facet normal  -0.000000e+000  0.000000e+000 -1.000000e+000
    outer loop
      vertex -4.924039e+001  8.682409e+000 -3.000000e+001
      vertex -3.423516e+001  7.276909e+000 -3.000000e+001
      vertex -5.000000e+001  6.123234e-015 -3.000000e+001
    endloop
  endfacet
  facet normal  0.000000e+000  0.000000e+000 -1.000000e+000
    outer loop
      vertex -5.000000e+001  6.123234e-015 -3.000000e+001
      vertex -3.423516e+001  7.276909e+000 -3.000000e+001
      vertex -3.500000e+001  4.286264e-015 -3.000000e+001
    endloop
  endfacet
  facet normal  -0.000000e+000  0.000000e+000 -1.000000e+000
    outer loop
      vertex -5.000000e+001  6.123234e-015 -3.000000e+001
      vertex -3.500000e+001  4.286264e-015 -3.000000e+001
      vertex -4.924039e+001 -8.682409e+000 -3.000000e+001
    endloop
  endfacet
  facet normal  0.000000e+000  0.000000e+000 -1.000000e+000
    outer loop
      vertex -4.924039e+001 -8.682409e+000 -3.000000e+001
      vertex -3.500000e+001  4.286264e-015 -3.000000e+001
      vertex -3.423516e+001 -7.276909e+000 -3.000000e+001
    endloop
  endfacet
  facet normal  0.000000e+000  0.000000e+000 -1.000000e+000
    outer loop
      vertex -4.924039e+001 -8.682409e+000 -3.000000e+001
      vertex -3.423516e+001 -7.276909e+000 -3.000000e+001
      vertex -4.698463e+001 -1.710101e+001 -3.000000e+001
    endloop
  endfacet
  facet normal  0.000000e+000  0.000000e+000 -1.000000e+000
    outer loop
      vertex -4.698463e+001 -1.710101e+001 -3.000000e+001
      vertex -3.423516e+001 -7.276909e+000 -3.000000e+001
      vertex -3.197409e+001 -1.423578e+001 -3.000000e+001
    endloop
  endfacet
  facet normal  0.000000e+000  0.000000e+000 -1.000000e+000
    outer loop
      vertex -4.698463e+001 -1.710101e+001 -3.000000e+001
      vertex -3.197409e+001 -1.423578e+001 -3.000000e+001
      vertex -4.330127e+001 -2.500000e+001 -3.000000e+001
    endloop
  endfacet
  facet normal  0.000000e+000  0.000000e+000 -1.000000e+000
    outer loop
      vertex -4.330127e+001 -2.500000e+001 -3.000000e+001
      vertex -3.197409e+001 -1.423578e+001 -3.000000e+001
      vertex -2.831560e+001 -2.057248e+001 -3.000000e+001
    endloop
  endfacet
  facet normal  0.000000e+000  -0.000000e+000 -1.000000e+000
    outer loop
      vertex -4.330127e+001 -2.500000e+001 -3.000000e+001
      vertex -2.831560e+001 -2.057248e+001 -3.000000e+001
      vertex -2.341957e+001 -2.601007e+001 -3.000000e+001
    endloop
  endfacet
  facet normal  0.000000e+000  0.000000e+000 -1.000000e+000
    outer loop
      vertex -1.750000e+001 -3.031089e+001 -3.000000e+001
      vertex -3.830222e+001 -3.213938e+001 -3.000000e+001
      vertex -2.341957e+001 -2.601007e+001 -3.000000e+001
    endloop
  endfacet
  facet normal  -0.000000e+000  0.000000e+000 -1.000000e+000
    outer loop
      vertex -2.341957e+001 -2.601007e+001 -3.000000e+001
      vertex -3.830222e+001 -3.213938e+001 -3.000000e+001
      vertex -4.330127e+001 -2.500000e+001 -3.000000e+001
    endloop
  endfacet
  facet normal  -0.000000e+000  0.000000e+000 -1.000000e+000
    outer loop
      vertex  2.341957e+001  2.601007e+001 -3.000000e+001
      vertex  4.330127e+001  2.500000e+001 -3.000000e+001
      vertex  2.831560e+001  2.057248e+001 -3.000000e+001
    endloop
  endfacet
  facet normal  0.000000e+000  0.000000e+000 -1.000000e+000
    outer loop
      vertex  2.831560e+001  2.057248e+001 -3.000000e+001
      vertex  4.330127e+001  2.500000e+001 -3.000000e+001
      vertex  4.698463e+001  1.710101e+001 -3.000000e+001
    endloop
  endfacet
  facet normal  -0.000000e+000  0.000000e+000 -9.999999e-001
    outer loop
      vertex  2.831560e+001  2.057248e+001 -3.000000e+001
      vertex  4.698463e+001  1.710101e+001 -3.000000e+001
      vertex  3.197409e+001  1.423578e+001 -3.000000e+001
    endloop
  endfacet
  facet normal  0.000000e+000  0.000000e+000 -1.000000e+000
    outer loop
      vertex  3.197409e+001  1.423578e+001 -3.000000e+001
      vertex  4.698463e+001  1.710101e+001 -3.000000e+001
      vertex  3.423516e+001  7.276909e+000 -3.000000e+001
    endloop
  endfacet
  facet normal  0.000000e+000  0.000000e+000 -1.000000e+000
    outer loop
      vertex  3.423516e+001  7.276909e+000 -3.000000e+001
      vertex  4.698463e+001  1.710101e+001 -3.000000e+001
      vertex  4.924039e+001  8.682409e+000 -3.000000e+001
    endloop
  endfacet
  facet normal  0.000000e+000  0.000000e+000 -1.000000e+000
    outer loop
      vertex  3.423516e+001  7.276909e+000 -3.000000e+001
      vertex  4.924039e+001  8.682409e+000 -3.000000e+001
      vertex  3.500000e+001  0.000000e+000 -3.000000e+001
    endloop
  endfacet
  facet normal  0.000000e+000  0.000000e+000 -1.000000e+000
    outer loop
      vertex  3.500000e+001  0.000000e+000 -3.000000e+001
      vertex  4.924039e+001  8.682409e+000 -3.000000e+001
      vertex  5.000000e+001  0.000000e+000 -3.000000e+001
    endloop
  endfacet
  facet normal  -0.000000e+000  0.000000e+000 -1.000000e+000
    outer loop
      vertex  3.500000e+001  0.000000e+000 -3.000000e+001
      vertex  5.000000e+001  0.000000e+000 -3.000000e+001
      vertex  3.423516e+001 -7.276909e+000 -3.000000e+001
    endloop
  endfacet
  facet normal  0.000000e+000  0.000000e+000 -1.000000e+000
    outer loop
      vertex  3.423516e+001 -7.276909e+000 -3.000000e+001
      vertex  5.000000e+001  0.000000e+000 -3.000000e+001
      vertex  4.924039e+001 -8.682409e+000 -3.000000e+001
    endloop
  endfacet
  facet normal  -0.000000e+000  0.000000e+000 -1.000000e+000
    outer loop
      vertex  3.423516e+001 -7.276909e+000 -3.000000e+001
      vertex  4.924039e+001 -8.682409e+000 -3.000000e+001
      vertex  3.197409e+001 -1.423578e+001 -3.000000e+001
    endloop
  endfacet
  facet normal  0.000000e+000  0.000000e+000 -1.000000e+000
    outer loop
      vertex  3.197409e+001 -1.423578e+001 -3.000000e+001
      vertex  4.924039e+001 -8.682409e+000 -3.000000e+001
      vertex  4.698463e+001 -1.710101e+001 -3.000000e+001
    endloop
  endfacet
  facet normal  -0.000000e+000  0.000000e+000 -9.999999e-001
    outer loop
      vertex  3.197409e+001 -1.423578e+001 -3.000000e+001
      vertex  4.698463e+001 -1.710101e+001 -3.000000e+001
      vertex  2.831560e+001 -2.057248e+001 -3.000000e+001
    endloop
  endfacet
  facet normal  0.000000e+000  0.000000e+000 -1.000000e+000
    outer loop
      vertex  2.831560e+001 -2.057248e+001 -3.000000e+001
      vertex  4.698463e+001 -1.710101e+001 -3.000000e+001
      vertex  4.330127e+001 -2.500000e+001 -3.000000e+001
    endloop
  endfacet
  facet normal  -0.000000e+000  0.000000e+000 -1.000000e+000
    outer loop
      vertex  2.831560e+001 -2.057248e+001 -3.000000e+001
      vertex  4.330127e+001 -2.500000e+001 -3.000000e+001
      vertex  2.341957e+001 -2.601007e+001 -3.000000e+001
    endloop
  endfacet
  facet normal  0.000000e+000  0.000000e+000 -1.000000e+000
    outer loop
      vertex  2.341957e+001 -2.601007e+001 -3.000000e+001
      vertex  4.330127e+001 -2.500000e+001 -3.000000e+001
      vertex  1.750000e+001 -3.031089e+001 -3.000000e+001
    endloop
  endfacet
  facet normal  0.000000e+000  0.000000e+000 -9.999999e-001
    outer loop
      vertex  1.750000e+001 -3.031089e+001 -3.000000e+001
      vertex  4.330127e+001 -2.500000e+001 -3.000000e+001
      vertex  3.830222e+001 -3.213938e+001 -3.000000e+001
    endloop
  endfacet
  facet normal  -0.000000e+000  0.000000e+000 -1.000000e+000
    outer loop
      vertex  1.750000e+001 -3.031089e+001 -3.000000e+001
      vertex  3.830222e+001 -3.213938e+001 -3.000000e+001
      vertex  1.081559e+001 -3.328698e+001 -3.000000e+001
    endloop
  endfacet
  facet normal  0.000000e+000  -0.000000e+000 -1.000000e+000
    outer loop
      vertex  3.658496e+000 -3.480827e+001 -3.000000e+001
      vertex  1.081559e+001 -3.328698e+001 -3.000000e+001
      vertex  3.213938e+001 -3.830222e+001 -3.000000e+001
    endloop
  endfacet
  facet normal  0.000000e+000  0.000000e+000 -1.000000e+000
    outer loop
      vertex  3.213938e+001 -3.830222e+001 -3.000000e+001
      vertex  1.081559e+001 -3.328698e+001 -3.000000e+001
      vertex  3.830222e+001 -3.213938e+001 -3.000000e+001
    endloop
  endfacet
  facet normal  9.945219e-001 -1.045287e-001  0.000000e+000
    outer loop
      vertex -3.500000e+001  4.286264e-015  3.000000e+001
      vertex -3.500000e+001  4.286264e-015 -3.000000e+001
      vertex -3.423516e+001  7.276909e+000  3.000000e+001
    endloop
  endfacet
  facet normal  9.945219e-001 -1.045287e-001  0.000000e+000
    outer loop
      vertex -3.423516e+001  7.276909e+000  3.000000e+001
      vertex -3.500000e+001  4.286264e-015 -3.000000e+001
      vertex -3.423516e+001  7.276909e+000 -3.000000e+001
    endloop
  endfacet
  facet normal  9.510565e-001 -3.090169e-001  0.000000e+000
    outer loop
      vertex -3.423516e+001  7.276909e+000  3.000000e+001
      vertex -3.423516e+001  7.276909e+000 -3.000000e+001
      vertex -3.197409e+001  1.423578e+001  3.000000e+001
    endloop
  endfacet
  facet normal  9.510565e-001 -3.090169e-001  0.000000e+000
    outer loop
      vertex -3.197409e+001  1.423578e+001  3.000000e+001
      vertex -3.423516e+001  7.276909e+000 -3.000000e+001
      vertex -3.197409e+001  1.423578e+001 -3.000000e+001
    endloop
  endfacet
  facet normal  8.660254e-001 -4.999999e-001  0.000000e+000
    outer loop
      vertex -3.197409e+001  1.423578e+001  3.000000e+001
      vertex -3.197409e+001  1.423578e+001 -3.000000e+001
      vertex -2.831560e+001  2.057248e+001  3.000000e+001
    endloop
  endfacet
  facet normal  8.660254e-001 -4.999999e-001  0.000000e+000
    outer loop
      vertex -2.831560e+001  2.057248e+001  3.000000e+001
      vertex -3.197409e+001  1.423578e+001 -3.000000e+001
      vertex -2.831560e+001  2.057248e+001 -3.000000e+001
    endloop
  endfacet
  facet normal  7.431448e-001 -6.691306e-001  0.000000e+000
    outer loop
      vertex -2.831560e+001  2.057248e+001  3.000000e+001
      vertex -2.831560e+001  2.057248e+001 -3.000000e+001
      vertex -2.341957e+001  2.601007e+001  3.000000e+001
    endloop
  endfacet
  facet normal  7.431448e-001 -6.691306e-001  0.000000e+000
    outer loop
      vertex -2.341957e+001  2.601007e+001  3.000000e+001
      vertex -2.831560e+001  2.057248e+001 -3.000000e+001
      vertex -2.341957e+001  2.601007e+001 -3.000000e+001
    endloop
  endfacet
  facet normal  5.877852e-001 -8.090171e-001  0.000000e+000
    outer loop
      vertex -2.341957e+001  2.601007e+001  3.000000e+001
      vertex -2.341957e+001  2.601007e+001 -3.000000e+001
      vertex -1.750000e+001  3.031089e+001  3.000000e+001
    endloop
  endfacet
  facet normal  5.877852e-001 -8.090171e-001  0.000000e+000
    outer loop
      vertex -1.750000e+001  3.031089e+001  3.000000e+001
      vertex -2.341957e+001  2.601007e+001 -3.000000e+001
      vertex -1.750000e+001  3.031089e+001 -3.000000e+001
    endloop
  endfacet
  facet normal  4.067369e-001 -9.135453e-001  0.000000e+000
    outer loop
      vertex -1.750000e+001  3.031089e+001  3.000000e+001
      vertex -1.750000e+001  3.031089e+001 -3.000000e+001
      vertex -1.081559e+001  3.328698e+001  3.000000e+001
    endloop
  endfacet
  facet normal  4.067369e-001 -9.135453e-001  0.000000e+000
    outer loop
      vertex -1.081559e+001  3.328698e+001  3.000000e+001
      vertex -1.750000e+001  3.031089e+001 -3.000000e+001
      vertex -1.081559e+001  3.328698e+001 -3.000000e+001
    endloop
  endfacet
  facet normal  2.079114e-001 -9.781476e-001  0.000000e+000
    outer loop
      vertex -1.081559e+001  3.328698e+001  3.000000e+001
      vertex -1.081559e+001  3.328698e+001 -3.000000e+001
      vertex -3.658496e+000  3.480827e+001  3.000000e+001
    endloop
  endfacet
  facet normal  2.079114e-001 -9.781476e-001  0.000000e+000
    outer loop
      vertex -3.658496e+000  3.480827e+001  3.000000e+001
      vertex -1.081559e+001  3.328698e+001 -3.000000e+001
      vertex -3.658496e+000  3.480827e+001 -3.000000e+001
    endloop
  endfacet
  facet normal  0.000000e+000 -9.999999e-001  0.000000e+000
    outer loop
      vertex -3.658496e+000  3.480827e+001  3.000000e+001
      vertex -3.658496e+000  3.480827e+001 -3.000000e+001
      vertex  3.658496e+000  3.480827e+001  3.000000e+001
    endloop
  endfacet
  facet normal  0.000000e+000 -9.999999e-001  -0.000000e+000
    outer loop
      vertex  3.658496e+000  3.480827e+001  3.000000e+001
      vertex -3.658496e+000  3.480827e+001 -3.000000e+001
      vertex  3.658496e+000  3.480827e+001 -3.000000e+001
    endloop
  endfacet
  facet normal -2.079114e-001 -9.781476e-001  0.000000e+000
    outer loop
      vertex  3.658496e+000  3.480827e+001  3.000000e+001
      vertex  3.658496e+000  3.480827e+001 -3.000000e+001
      vertex  1.081559e+001  3.328698e+001  3.000000e+001
    endloop
  endfacet
  facet normal -2.079114e-001 -9.781476e-001  -0.000000e+000
    outer loop
      vertex  1.081559e+001  3.328698e+001  3.000000e+001
      vertex  3.658496e+000  3.480827e+001 -3.000000e+001
      vertex  1.081559e+001  3.328698e+001 -3.000000e+001
    endloop
  endfacet
  facet normal -4.067369e-001 -9.135453e-001  0.000000e+000
    outer loop
      vertex  1.081559e+001  3.328698e+001  3.000000e+001
      vertex  1.081559e+001  3.328698e+001 -3.000000e+001
      vertex  1.750000e+001  3.031089e+001  3.000000e+001
    endloop
  endfacet
  facet normal -4.067369e-001 -9.135453e-001  -0.000000e+000
    outer loop
      vertex  1.750000e+001  3.031089e+001  3.000000e+001
      vertex  1.081559e+001  3.328698e+001 -3.000000e+001
      vertex  1.750000e+001  3.031089e+001 -3.000000e+001
    endloop
  endfacet
  facet normal -5.877852e-001 -8.090171e-001  0.000000e+000
    outer loop
      vertex  1.750000e+001  3.031089e+001  3.000000e+001
      vertex  1.750000e+001  3.031089e+001 -3.000000e+001
      vertex  2.341957e+001  2.601007e+001  3.000000e+001
    endloop
  endfacet
  facet normal -5.877852e-001 -8.090171e-001  -0.000000e+000
    outer loop
      vertex  2.341957e+001  2.601007e+001  3.000000e+001
      vertex  1.750000e+001  3.031089e+001 -3.000000e+001
      vertex  2.341957e+001  2.601007e+001 -3.000000e+001
    endloop
  endfacet
  facet normal -7.431448e-001 -6.691306e-001  0.000000e+000
    outer loop
      vertex  2.341957e+001  2.601007e+001  3.000000e+001
      vertex  2.341957e+001  2.601007e+001 -3.000000e+001
      vertex  2.831560e+001  2.057248e+001  3.000000e+001
    endloop
  endfacet
  facet normal -7.431448e-001 -6.691306e-001  -0.000000e+000
    outer loop
      vertex  2.831560e+001  2.057248e+001  3.000000e+001
      vertex  2.341957e+001  2.601007e+001 -3.000000e+001
      vertex  2.831560e+001  2.057248e+001 -3.000000e+001
    endloop
  endfacet
  facet normal -8.660254e-001 -4.999999e-001  0.000000e+000
    outer loop
      vertex  2.831560e+001  2.057248e+001  3.000000e+001
      vertex  2.831560e+001  2.057248e+001 -3.000000e+001
      vertex  3.197409e+001  1.423578e+001  3.000000e+001
    endloop
  endfacet
  facet normal -8.660254e-001 -4.999999e-001  -0.000000e+000
    outer loop
      vertex  3.197409e+001  1.423578e+001  3.000000e+001
      vertex  2.831560e+001  2.057248e+001 -3.000000e+001
      vertex  3.197409e+001  1.423578e+001 -3.000000e+001
    endloop
  endfacet
  facet normal -9.510565e-001 -3.090169e-001  0.000000e+000
    outer loop
      vertex  3.197409e+001  1.423578e+001  3.000000e+001
      vertex  3.197409e+001  1.423578e+001 -3.000000e+001
      vertex  3.423516e+001  7.276909e+000  3.000000e+001
    endloop
  endfacet
  facet normal -9.510565e-001 -3.090169e-001  -0.000000e+000
    outer loop
      vertex  3.423516e+001  7.276909e+000  3.000000e+001
      vertex  3.197409e+001  1.423578e+001 -3.000000e+001
      vertex  3.423516e+001  7.276909e+000 -3.000000e+001
    endloop
  endfacet
  facet normal -9.945219e-001 -1.045287e-001  0.000000e+000
    outer loop
      vertex  3.423516e+001  7.276909e+000  3.000000e+001
      vertex  3.423516e+001  7.276909e+000 -3.000000e+001
      vertex  3.500000e+001  0.000000e+000  3.000000e+001
    endloop
  endfacet
  facet normal -9.945219e-001 -1.045287e-001  -0.000000e+000
    outer loop
      vertex  3.500000e+001  0.000000e+000  3.000000e+001
      vertex  3.423516e+001  7.276909e+000 -3.000000e+001
      vertex  3.500000e+001  0.000000e+000 -3.000000e+001
    endloop
  endfacet
  facet normal -9.945219e-001  1.045287e-001  0.000000e+000
    outer loop
      vertex  3.500000e+001  0.000000e+000  3.000000e+001
      vertex  3.500000e+001  0.000000e+000 -3.000000e+001
      vertex  3.423516e+001 -7.276909e+000  3.000000e+001
    endloop
  endfacet
  facet normal -9.945219e-001  1.045287e-001  0.000000e+000
    outer loop
      vertex  3.423516e+001 -7.276909e+000  3.000000e+001
      vertex  3.500000e+001  0.000000e+000 -3.000000e+001
      vertex  3.423516e+001 -7.276909e+000 -3.000000e+001
    endloop
  endfacet
  facet normal -9.510565e-001  3.090169e-001  0.000000e+000
    outer loop
      vertex  3.423516e+001 -7.276909e+000  3.000000e+001
      vertex  3.423516e+001 -7.276909e+000 -3.000000e+001
      vertex  3.197409e+001 -1.423578e+001  3.000000e+001
    endloop
  endfacet
  facet normal -9.510565e-001  3.090169e-001  0.000000e+000
    outer loop
      vertex  3.197409e+001 -1.423578e+001  3.000000e+001
      vertex  3.423516e+001 -7.276909e+000 -3.000000e+001
      vertex  3.197409e+001 -1.423578e+001 -3.000000e+001
    endloop
  endfacet
  facet normal -8.660254e-001  4.999999e-001  0.000000e+000
    outer loop
      vertex  3.197409e+001 -1.423578e+001  3.000000e+001
      vertex  3.197409e+001 -1.423578e+001 -3.000000e+001
      vertex  2.831560e+001 -2.057248e+001  3.000000e+001
    endloop
  endfacet
  facet normal -8.660254e-001  4.999999e-001  0.000000e+000
    outer loop
      vertex  2.831560e+001 -2.057248e+001  3.000000e+001
      vertex  3.197409e+001 -1.423578e+001 -3.000000e+001
      vertex  2.831560e+001 -2.057248e+001 -3.000000e+001
    endloop
  endfacet
  facet normal -7.431448e-001  6.691306e-001  0.000000e+000
    outer loop
      vertex  2.831560e+001 -2.057248e+001  3.000000e+001
      vertex  2.831560e+001 -2.057248e+001 -3.000000e+001
      vertex  2.341957e+001 -2.601007e+001  3.000000e+001
    endloop
  endfacet
  facet normal -7.431448e-001  6.691306e-001  0.000000e+000
    outer loop
      vertex  2.341957e+001 -2.601007e+001  3.000000e+001
      vertex  2.831560e+001 -2.057248e+001 -3.000000e+001
      vertex  2.341957e+001 -2.601007e+001 -3.000000e+001
    endloop
  endfacet
  facet normal -5.877852e-001  8.090171e-001  0.000000e+000
    outer loop
      vertex  2.341957e+001 -2.601007e+001  3.000000e+001
      vertex  2.341957e+001 -2.601007e+001 -3.000000e+001
      vertex  1.750000e+001 -3.031089e+001  3.000000e+001
    endloop
  endfacet
  facet normal -5.877852e-001  8.090171e-001  0.000000e+000
    outer loop
      vertex  1.750000e+001 -3.031089e+001  3.000000e+001
      vertex  2.341957e+001 -2.601007e+001 -3.000000e+001
      vertex  1.750000e+001 -3.031089e+001 -3.000000e+001
    endloop
  endfacet
  facet normal -4.067369e-001  9.135453e-001  0.000000e+000
    outer loop
      vertex  1.750000e+001 -3.031089e+001  3.000000e+001
      vertex  1.750000e+001 -3.031089e+001 -3.000000e+001
      vertex  1.081559e+001 -3.328698e+001  3.000000e+001
    endloop
  endfacet
  facet normal -4.067369e-001  9.135453e-001  0.000000e+000
    outer loop
      vertex  1.081559e+001 -3.328698e+001  3.000000e+001
      vertex  1.750000e+001 -3.031089e+001 -3.000000e+001
      vertex  1.081559e+001 -3.328698e+001 -3.000000e+001
    endloop
  endfacet
  facet normal -2.079114e-001  9.781476e-001  0.000000e+000
    outer loop
      vertex  1.081559e+001 -3.328698e+001  3.000000e+001
      vertex  1.081559e+001 -3.328698e+001 -3.000000e+001
      vertex  3.658496e+000 -3.480827e+001  3.000000e+001
    endloop
  endfacet
  facet normal -2.079114e-001  9.781476e-001  0.000000e+000
    outer loop
      vertex  3.658496e+000 -3.480827e+001  3.000000e+001
      vertex  1.081559e+001 -3.328698e+001 -3.000000e+001
      vertex  3.658496e+000 -3.480827e+001 -3.000000e+001
    endloop
  endfacet
  facet normal  0.000000e+000  9.999999e-001  -0.000000e+000
    outer loop
      vertex  3.658496e+000 -3.480827e+001  3.000000e+001
      vertex  3.658496e+000 -3.480827e+001 -3.000000e+001
      vertex -3.658496e+000 -3.480827e+001  3.000000e+001
    endloop
  endfacet
  facet normal  0.000000e+000  9.999999e-001  0.000000e+000
    outer loop
      vertex -3.658496e+000 -3.480827e+001  3.000000e+001
      vertex  3.658496e+000 -3.480827e+001 -3.000000e+001
      vertex -3.658496e+000 -3.480827e+001 -3.000000e+001
    endloop
  endfacet
  facet normal  2.079114e-001  9.781476e-001  -0.000000e+000
    outer loop
      vertex -3.658496e+000 -3.480827e+001  3.000000e+001
      vertex -3.658496e+000 -3.480827e+001 -3.000000e+001
      vertex -1.081559e+001 -3.328698e+001  3.000000e+001
    endloop
  endfacet
  facet normal  2.079114e-001  9.781476e-001  0.000000e+000
    outer loop
      vertex -1.081559e+001 -3.328698e+001  3.000000e+001
      vertex -3.658496e+000 -3.480827e+001 -3.000000e+001
      vertex -1.081559e+001 -3.328698e+001 -3.000000e+001
    endloop
  endfacet
  facet normal  4.067369e-001  9.135453e-001  -0.000000e+000
    outer loop
      vertex -1.081559e+001 -3.328698e+001  3.000000e+001
      vertex -1.081559e+001 -3.328698e+001 -3.000000e+001
      vertex -1.750000e+001 -3.031089e+001  3.000000e+001
    endloop
  endfacet
  facet normal  4.067369e-001  9.135453e-001  0.000000e+000
    outer loop
      vertex -1.750000e+001 -3.031089e+001  3.000000e+001
      vertex -1.081559e+001 -3.328698e+001 -3.000000e+001
      vertex -1.750000e+001 -3.031089e+001 -3.000000e+001
    endloop
  endfacet
  facet normal  5.877852e-001  8.090171e-001  -0.000000e+000
    outer loop
      vertex -1.750000e+001 -3.031089e+001  3.000000e+001
      vertex -1.750000e+001 -3.031089e+001 -3.000000e+001
      vertex -2.341957e+001 -2.601007e+001  3.000000e+001
    endloop
  endfacet
  facet normal  5.877852e-001  8.090171e-001  0.000000e+000
    outer loop
      vertex -2.341957e+001 -2.601007e+001  3.000000e+001
      vertex -1.750000e+001 -3.031089e+001 -3.000000e+001
      vertex -2.341957e+001 -2.601007e+001 -3.000000e+001
    endloop
  endfacet
  facet normal  7.431448e-001  6.691306e-001  -0.000000e+000
    outer loop
      vertex -2.341957e+001 -2.601007e+001  3.000000e+001
      vertex -2.341957e+001 -2.601007e+001 -3.000000e+001
      vertex -2.831560e+001 -2.057248e+001  3.000000e+001
    endloop
  endfacet
  facet normal  7.431448e-001  6.691306e-001  0.000000e+000
    outer loop
      vertex -2.831560e+001 -2.057248e+001  3.000000e+001
      vertex -2.341957e+001 -2.601007e+001 -3.000000e+001
      vertex -2.831560e+001 -2.057248e+001 -3.000000e+001
    endloop
  endfacet
  facet normal  8.660254e-001  4.999999e-001  -0.000000e+000
    outer loop
      vertex -2.831560e+001 -2.057248e+001  3.000000e+001
      vertex -2.831560e+001 -2.057248e+001 -3.000000e+001
      vertex -3.197409e+001 -1.423578e+001  3.000000e+001
    endloop
  endfacet
  facet normal  8.660254e-001  4.999999e-001  0.000000e+000
    outer loop
      vertex -3.197409e+001 -1.423578e+001  3.000000e+001
      vertex -2.831560e+001 -2.057248e+001 -3.000000e+001
      vertex -3.197409e+001 -1.423578e+001 -3.000000e+001
    endloop
  endfacet
  facet normal  9.510565e-001  3.090169e-001  -0.000000e+000
    outer loop
      vertex -3.197409e+001 -1.423578e+001  3.000000e+001
      vertex -3.197409e+001 -1.423578e+001 -3.000000e+001
      vertex -3.423516e+001 -7.276909e+000  3.000000e+001
    endloop
  endfacet
  facet normal  9.510565e-001  3.090169e-001  0.000000e+000
    outer loop
      vertex -3.423516e+001 -7.276909e+000  3.000000e+001
      vertex -3.197409e+001 -1.423578e+001 -3.000000e+001
      vertex -3.423516e+001 -7.276909e+000 -3.000000e+001
    endloop
  endfacet
  facet normal  9.945219e-001  1.045287e-001  -0.000000e+000
    outer loop
      vertex -3.423516e+001 -7.276909e+000  3.000000e+001
      vertex -3.423516e+001 -7.276909e+000 -3.000000e+001
      vertex -3.500000e+001  4.286264e-015  3.000000e+001
    endloop
  endfacet
  facet normal  9.945219e-001  1.045287e-001  0.000000e+000
    outer loop
      vertex -3.500000e+001  4.286264e-015  3.000000e+001
      vertex -3.423516e+001 -7.276909e+000 -3.000000e+001
      vertex -3.500000e+001  4.286264e-015 -3.000000e+001
    endloop
  endfacet
  facet normal  9.961947e-001 -8.715581e-002  0.000000e+000
    outer loop
      vertex  5.000000e+001  0.000000e+000 -3.000000e+001
      vertex  5.000000e+001  0.000000e+000  3.000000e+001
      vertex  4.924039e+001 -8.682409e+000 -3.000000e+001
    endloop
  endfacet
  facet normal  9.961947e-001 -8.715581e-002  0.000000e+000
    outer loop
      vertex  4.924039e+001 -8.682409e+000 -3.000000e+001
      vertex  5.000000e+001  0.000000e+000  3.000000e+001
      vertex  4.924039e+001 -8.682409e+000  3.000000e+001
    endloop
  endfacet
  facet normal  9.659259e-001 -2.588190e-001  0.000000e+000
    outer loop
      vertex  4.924039e+001 -8.682409e+000 -3.000000e+001
      vertex  4.924039e+001 -8.682409e+000  3.000000e+001
      vertex  4.698463e+001 -1.710101e+001 -3.000000e+001
    endloop
  endfacet
  facet normal  9.659259e-001 -2.588190e-001  0.000000e+000
    outer loop
      vertex  4.698463e+001 -1.710101e+001 -3.000000e+001
      vertex  4.924039e+001 -8.682409e+000  3.000000e+001
      vertex  4.698463e+001 -1.710101e+001  3.000000e+001
    endloop
  endfacet
  facet normal  9.063078e-001 -4.226183e-001  0.000000e+000
    outer loop
      vertex  4.698463e+001 -1.710101e+001 -3.000000e+001
      vertex  4.698463e+001 -1.710101e+001  3.000000e+001
      vertex  4.330127e+001 -2.500000e+001 -3.000000e+001
    endloop
  endfacet
  facet normal  9.063078e-001 -4.226183e-001  0.000000e+000
    outer loop
      vertex  4.330127e+001 -2.500000e+001 -3.000000e+001
      vertex  4.698463e+001 -1.710101e+001  3.000000e+001
      vertex  4.330127e+001 -2.500000e+001  3.000000e+001
    endloop
  endfacet
  facet normal  8.191522e-001 -5.735763e-001  0.000000e+000
    outer loop
      vertex  4.330127e+001 -2.500000e+001 -3.000000e+001
      vertex  4.330127e+001 -2.500000e+001  3.000000e+001
      vertex  3.830222e+001 -3.213938e+001 -3.000000e+001
    endloop
  endfacet
  facet normal  8.191522e-001 -5.735763e-001  0.000000e+000
    outer loop
      vertex  3.830222e+001 -3.213938e+001 -3.000000e+001
      vertex  4.330127e+001 -2.500000e+001  3.000000e+001
      vertex  3.830222e+001 -3.213938e+001  3.000000e+001
    endloop
  endfacet
  facet normal  7.071068e-001 -7.071068e-001  0.000000e+000
    outer loop
      vertex  3.830222e+001 -3.213938e+001 -3.000000e+001
      vertex  3.830222e+001 -3.213938e+001  3.000000e+001
      vertex  3.213938e+001 -3.830222e+001 -3.000000e+001
    endloop
  endfacet
  facet normal  7.071068e-001 -7.071068e-001  0.000000e+000
    outer loop
      vertex  3.213938e+001 -3.830222e+001 -3.000000e+001
      vertex  3.830222e+001 -3.213938e+001  3.000000e+001
      vertex  3.213938e+001 -3.830222e+001  3.000000e+001
    endloop
  endfacet
  facet normal  5.735763e-001 -8.191522e-001  0.000000e+000
    outer loop
      vertex  3.213938e+001 -3.830222e+001 -3.000000e+001
      vertex  3.213938e+001 -3.830222e+001  3.000000e+001
      vertex  2.500000e+001 -4.330127e+001 -3.000000e+001
    endloop
  endfacet
  facet normal  5.735763e-001 -8.191522e-001  0.000000e+000
    outer loop
      vertex  2.500000e+001 -4.330127e+001 -3.000000e+001
      vertex  3.213938e+001 -3.830222e+001  3.000000e+001
      vertex  2.500000e+001 -4.330127e+001  3.000000e+001
    endloop
  endfacet
  facet normal  4.226183e-001 -9.063078e-001  0.000000e+000
    outer loop
      vertex  2.500000e+001 -4.330127e+001 -3.000000e+001
      vertex  2.500000e+001 -4.330127e+001  3.000000e+001
      vertex  1.710101e+001 -4.698463e+001 -3.000000e+001
    endloop
  endfacet
  facet normal  4.226183e-001 -9.063078e-001  0.000000e+000
    outer loop
      vertex  1.710101e+001 -4.698463e+001 -3.000000e+001
      vertex  2.500000e+001 -4.330127e+001  3.000000e+001
      vertex  1.710101e+001 -4.698463e+001  3.000000e+001
    endloop
  endfacet
  facet normal  2.588190e-001 -9.659259e-001  0.000000e+000
    outer loop
      vertex  1.710101e+001 -4.698463e+001 -3.000000e+001
      vertex  1.710101e+001 -4.698463e+001  3.000000e+001
      vertex  8.682409e+000 -4.924039e+001 -3.000000e+001
    endloop
  endfacet
  facet normal  2.588190e-001 -9.659259e-001  0.000000e+000
    outer loop
      vertex  8.682409e+000 -4.924039e+001 -3.000000e+001
      vertex  1.710101e+001 -4.698463e+001  3.000000e+001
      vertex  8.682409e+000 -4.924039e+001  3.000000e+001
    endloop
  endfacet
  facet normal  8.715581e-002 -9.961947e-001  0.000000e+000
    outer loop
      vertex  8.682409e+000 -4.924039e+001 -3.000000e+001
      vertex  8.682409e+000 -4.924039e+001  3.000000e+001
      vertex -9.184851e-015 -5.000000e+001 -3.000000e+001
    endloop
  endfacet
  facet normal  8.715581e-002 -9.961947e-001  0.000000e+000
    outer loop
      vertex -9.184851e-015 -5.000000e+001 -3.000000e+001
      vertex  8.682409e+000 -4.924039e+001  3.000000e+001
      vertex -9.184851e-015 -5.000000e+001  3.000000e+001
    endloop
  endfacet
  facet normal -8.715581e-002 -9.961947e-001  -0.000000e+000
    outer loop
      vertex -9.184851e-015 -5.000000e+001 -3.000000e+001
      vertex -9.184851e-015 -5.000000e+001  3.000000e+001
      vertex -8.682409e+000 -4.924039e+001 -3.000000e+001
    endloop
  endfacet
  facet normal -8.715581e-002 -9.961947e-001  0.000000e+000
    outer loop
      vertex -8.682409e+000 -4.924039e+001 -3.000000e+001
      vertex -9.184851e-015 -5.000000e+001  3.000000e+001
      vertex -8.682409e+000 -4.924039e+001  3.000000e+001
    endloop
  endfacet
  facet normal -2.588190e-001 -9.659259e-001  -0.000000e+000
    outer loop
      vertex -8.682409e+000 -4.924039e+001 -3.000000e+001
      vertex -8.682409e+000 -4.924039e+001  3.000000e+001
      vertex -1.710101e+001 -4.698463e+001 -3.000000e+001
    endloop
  endfacet
  facet normal -2.588190e-001 -9.659259e-001  0.000000e+000
    outer loop
      vertex -1.710101e+001 -4.698463e+001 -3.000000e+001
      vertex -8.682409e+000 -4.924039e+001  3.000000e+001
      vertex -1.710101e+001 -4.698463e+001  3.000000e+001
    endloop
  endfacet
  facet normal -4.226183e-001 -9.063078e-001  -0.000000e+000
    outer loop
      vertex -1.710101e+001 -4.698463e+001 -3.000000e+001
      vertex -1.710101e+001 -4.698463e+001  3.000000e+001
      vertex -2.500000e+001 -4.330127e+001 -3.000000e+001
    endloop
  endfacet
  facet normal -4.226183e-001 -9.063078e-001  0.000000e+000
    outer loop
      vertex -2.500000e+001 -4.330127e+001 -3.000000e+001
      vertex -1.710101e+001 -4.698463e+001  3.000000e+001
      vertex -2.500000e+001 -4.330127e+001  3.000000e+001
    endloop
  endfacet
  facet normal -5.735763e-001 -8.191522e-001  -0.000000e+000
    outer loop
      vertex -2.500000e+001 -4.330127e+001 -3.000000e+001
      vertex -2.500000e+001 -4.330127e+001  3.000000e+001
      vertex -3.213938e+001 -3.830222e+001 -3.000000e+001
    endloop
  endfacet
  facet normal -5.735763e-001 -8.191522e-001  0.000000e+000
    outer loop
      vertex -3.213938e+001 -3.830222e+001 -3.000000e+001
      vertex -2.500000e+001 -4.330127e+001  3.000000e+001
      vertex -3.213938e+001 -3.830222e+001  3.000000e+001
    endloop
  endfacet
  facet normal -7.071068e-001 -7.071068e-001  -0.000000e+000
    outer loop
      vertex -3.213938e+001 -3.830222e+001 -3.000000e+001
      vertex -3.213938e+001 -3.830222e+001  3.000000e+001
      vertex -3.830222e+001 -3.213938e+001 -3.000000e+001
    endloop
  endfacet
  facet normal -7.071068e-001 -7.071068e-001  0.000000e+000
    outer loop
      vertex -3.830222e+001 -3.213938e+001 -3.000000e+001
      vertex -3.213938e+001 -3.830222e+001  3.000000e+001
      vertex -3.830222e+001 -3.213938e+001  3.000000e+001
    endloop
  endfacet
  facet normal -8.191522e-001 -5.735763e-001  -0.000000e+000
    outer loop
      vertex -3.830222e+001 -3.213938e+001 -3.000000e+001
      vertex -3.830222e+001 -3.213938e+001  3.000000e+001
      vertex -4.330127e+001 -2.500000e+001 -3.000000e+001
    endloop
  endfacet
  facet normal -8.191522e-001 -5.735763e-001  0.000000e+000
    outer loop
      vertex -4.330127e+001 -2.500000e+001 -3.000000e+001
      vertex -3.830222e+001 -3.213938e+001  3.000000e+001
      vertex -4.330127e+001 -2.500000e+001  3.000000e+001
    endloop
  endfacet
  facet normal -9.063078e-001 -4.226183e-001  -0.000000e+000
    outer loop
      vertex -4.330127e+001 -2.500000e+001 -3.000000e+001
      vertex -4.330127e+001 -2.500000e+001  3.000000e+001
      vertex -4.698463e+001 -1.710101e+001 -3.000000e+001
    endloop
  endfacet
  facet normal -9.063078e-001 -4.226183e-001  0.000000e+000
    outer loop
      vertex -4.698463e+001 -1.710101e+001 -3.000000e+001
      vertex -4.330127e+001 -2.500000e+001  3.000000e+001
      vertex -4.698463e+001 -1.710101e+001  3.000000e+001
    endloop
  endfacet
  facet normal -9.659259e-001 -2.588190e-001  -0.000000e+000
    outer loop
      vertex -4.698463e+001 -1.710101e+001 -3.000000e+001
      vertex -4.698463e+001 -1.710101e+001  3.000000e+001
      vertex -4.924039e+001 -8.682409e+000 -3.000000e+001
    endloop
  endfacet
  facet normal -9.659259e-001 -2.588190e-001  0.000000e+000
    outer loop
      vertex -4.924039e+001 -8.682409e+000 -3.000000e+001
      vertex -4.698463e+001 -1.710101e+001  3.000000e+001
      vertex -4.924039e+001 -8.682409e+000  3.000000e+001
    endloop
  endfacet
  facet normal -9.961947e-001 -8.715581e-002  -0.000000e+000
    outer loop
      vertex -4.924039e+001 -8.682409e+000 -3.000000e+001
      vertex -4.924039e+001 -8.682409e+000  3.000000e+001
      vertex -5.000000e+001  6.123234e-015 -3.000000e+001
    endloop
  endfacet
  facet normal -9.961947e-001 -8.715581e-002  0.000000e+000
    outer loop
      vertex -5.000000e+001  6.123234e-015 -3.000000e+001
      vertex -4.924039e+001 -8.682409e+000  3.000000e+001
      vertex -5.000000e+001  6.123234e-015  3.000000e+001
    endloop
  endfacet
  facet normal -9.961947e-001  8.715581e-002  0.000000e+000
    outer loop
      vertex -5.000000e+001  6.123234e-015 -3.000000e+001
      vertex -5.000000e+001  6.123234e-015  3.000000e+001
      vertex -4.924039e+001  8.682409e+000 -3.000000e+001
    endloop
  endfacet
  facet normal -9.961947e-001  8.715581e-002  0.000000e+000
    outer loop
      vertex -4.924039e+001  8.682409e+000 -3.000000e+001
      vertex -5.000000e+001  6.123234e-015  3.000000e+001
      vertex -4.924039e+001  8.682409e+000  3.000000e+001
    endloop
  endfacet
  facet normal -9.659259e-001  2.588190e-001  0.000000e+000
    outer loop
      vertex -4.924039e+001  8.682409e+000 -3.000000e+001
      vertex -4.924039e+001  8.682409e+000  3.000000e+001
      vertex -4.698463e+001  1.710101e+001 -3.000000e+001
    endloop
  endfacet
  facet normal -9.659259e-001  2.588190e-001  0.000000e+000
    outer loop
      vertex -4.698463e+001  1.710101e+001 -3.000000e+001
      vertex -4.924039e+001  8.682409e+000  3.000000e+001
      vertex -4.698463e+001  1.710101e+001  3.000000e+001
    endloop
  endfacet
  facet normal -9.063078e-001  4.226183e-001  0.000000e+000
    outer loop
      vertex -4.698463e+001  1.710101e+001 -3.000000e+001
      vertex -4.698463e+001  1.710101e+001  3.000000e+001
      vertex -4.330127e+001  2.500000e+001 -3.000000e+001
    endloop
  endfacet
  facet normal -9.063078e-001  4.226183e-001  0.000000e+000
    outer loop
      vertex -4.330127e+001  2.500000e+001 -3.000000e+001
      vertex -4.698463e+001  1.710101e+001  3.000000e+001
      vertex -4.330127e+001  2.500000e+001  3.000000e+001
    endloop
  endfacet
  facet normal -8.191522e-001  5.735763e-001  0.000000e+000
    outer loop
      vertex -4.330127e+001  2.500000e+001 -3.000000e+001
      vertex -4.330127e+001  2.500000e+001  3.000000e+001
      vertex -3.830222e+001  3.213938e+001 -3.000000e+001
    endloop
  endfacet
  facet normal -8.191522e-001  5.735763e-001  0.000000e+000
    outer loop
      vertex -3.830222e+001  3.213938e+001 -3.000000e+001
      vertex -4.330127e+001  2.500000e+001  3.000000e+001
      vertex -3.830222e+001  3.213938e+001  3.000000e+001
    endloop
  endfacet
  facet normal -7.071068e-001  7.071068e-001  0.000000e+000
    outer loop
      vertex -3.830222e+001  3.213938e+001 -3.000000e+001
      vertex -3.830222e+001  3.213938e+001  3.000000e+001
      vertex -3.213938e+001  3.830222e+001 -3.000000e+001
    endloop
  endfacet
  facet normal -7.071068e-001  7.071068e-001  0.000000e+000
    outer loop
      vertex -3.213938e+001  3.830222e+001 -3.000000e+001
      vertex -3.830222e+001  3.213938e+001  3.000000e+001
      vertex -3.213938e+001  3.830222e+001  3.000000e+001
    endloop
  endfacet
  facet normal -5.735763e-001  8.191522e-001  0.000000e+000
    outer loop
      vertex -3.213938e+001  3.830222e+001 -3.000000e+001
      vertex -3.213938e+001  3.830222e+001  3.000000e+001
      vertex -2.500000e+001  4.330127e+001 -3.000000e+001
    endloop
  endfacet
  facet normal -5.735763e-001  8.191522e-001  0.000000e+000
    outer loop
      vertex -2.500000e+001  4.330127e+001 -3.000000e+001
      vertex -3.213938e+001  3.830222e+001  3.000000e+001
      vertex -2.500000e+001  4.330127e+001  3.000000e+001
    endloop
  endfacet
  facet normal -4.226183e-001  9.063078e-001  0.000000e+000
    outer loop
      vertex -2.500000e+001  4.330127e+001 -3.000000e+001
      vertex -2.500000e+001  4.330127e+001  3.000000e+001
      vertex -1.710101e+001  4.698463e+001 -3.000000e+001
    endloop
  endfacet
  facet normal -4.226183e-001  9.063078e-001  0.000000e+000
    outer loop
      vertex -1.710101e+001  4.698463e+001 -3.000000e+001
      vertex -2.500000e+001  4.330127e+001  3.000000e+001
      vertex -1.710101e+001  4.698463e+001  3.000000e+001
    endloop
  endfacet
  facet normal -2.588190e-001  9.659259e-001  0.000000e+000
    outer loop
      vertex -1.710101e+001  4.698463e+001 -3.000000e+001
      vertex -1.710101e+001  4.698463e+001  3.000000e+001
      vertex -8.682409e+000  4.924039e+001 -3.000000e+001
    endloop
  endfacet
  facet normal -2.588190e-001  9.659259e-001  0.000000e+000
    outer loop
      vertex -8.682409e+000  4.924039e+001 -3.000000e+001
      vertex -1.710101e+001  4.698463e+001  3.000000e+001
      vertex -8.682409e+000  4.924039e+001  3.000000e+001
    endloop
  endfacet
  facet normal -8.715581e-002  9.961947e-001  0.000000e+000
    outer loop
      vertex -8.682409e+000  4.924039e+001 -3.000000e+001
      vertex -8.682409e+000  4.924039e+001  3.000000e+001
      vertex  3.061617e-015  5.000000e+001 -3.000000e+001
    endloop
  endfacet
  facet normal -8.715581e-002  9.961947e-001  0.000000e+000
    outer loop
      vertex  3.061617e-015  5.000000e+001 -3.000000e+001
      vertex -8.682409e+000  4.924039e+001  3.000000e+001
      vertex  3.061617e-015  5.000000e+001  3.000000e+001
    endloop
  endfacet
  facet normal  8.715581e-002  9.961947e-001  0.000000e+000
    outer loop
      vertex  3.061617e-015  5.000000e+001 -3.000000e+001
      vertex  3.061617e-015  5.000000e+001  3.000000e+001
      vertex  8.682409e+000  4.924039e+001 -3.000000e+001
    endloop
  endfacet
  facet normal  8.715581e-002  9.961947e-001  -0.000000e+000
    outer loop
      vertex  8.682409e+000  4.924039e+001 -3.000000e+001
      vertex  3.061617e-015  5.000000e+001  3.000000e+001
      vertex  8.682409e+000  4.924039e+001  3.000000e+001
    endloop
  endfacet
  facet normal  2.588190e-001  9.659259e-001  0.000000e+000
    outer loop
      vertex  8.682409e+000  4.924039e+001 -3.000000e+001
      vertex  8.682409e+000  4.924039e+001  3.000000e+001
      vertex  1.710101e+001  4.698463e+001 -3.000000e+001
    endloop
  endfacet
  facet normal  2.588190e-001  9.659259e-001  -0.000000e+000
    outer loop
      vertex  1.710101e+001  4.698463e+001 -3.000000e+001
      vertex  8.682409e+000  4.924039e+001  3.000000e+001
      vertex  1.710101e+001  4.698463e+001  3.000000e+001
    endloop
  endfacet
  facet normal  4.226183e-001  9.063078e-001  0.000000e+000
    outer loop
      vertex  1.710101e+001  4.698463e+001 -3.000000e+001
      vertex  1.710101e+001  4.698463e+001  3.000000e+001
      vertex  2.500000e+001  4.330127e+001 -3.000000e+001
    endloop
  endfacet
  facet normal  4.226183e-001  9.063078e-001  -0.000000e+000
    outer loop
      vertex  2.500000e+001  4.330127e+001 -3.000000e+001
      vertex  1.710101e+001  4.698463e+001  3.000000e+001
      vertex  2.500000e+001  4.330127e+001  3.000000e+001
    endloop
  endfacet
  facet normal  5.735763e-001  8.191522e-001  0.000000e+000
    outer loop
      vertex  2.500000e+001  4.330127e+001 -3.000000e+001
      vertex  2.500000e+001  4.330127e+001  3.000000e+001
      vertex  3.213938e+001  3.830222e+001 -3.000000e+001
    endloop
  endfacet
  facet normal  5.735763e-001  8.191522e-001  -0.000000e+000
    outer loop
      vertex  3.213938e+001  3.830222e+001 -3.000000e+001
      vertex  2.500000e+001  4.330127e+001  3.000000e+001
      vertex  3.213938e+001  3.830222e+001  3.000000e+001
    endloop
  endfacet
  facet normal  7.071068e-001  7.071068e-001  0.000000e+000
    outer loop
      vertex  3.213938e+001  3.830222e+001 -3.000000e+001
      vertex  3.213938e+001  3.830222e+001  3.000000e+001
      vertex  3.830222e+001  3.213938e+001 -3.000000e+001
    endloop
  endfacet
  facet normal  7.071068e-001  7.071068e-001  -0.000000e+000
    outer loop
      vertex  3.830222e+001  3.213938e+001 -3.000000e+001
      vertex  3.213938e+001  3.830222e+001  3.000000e+001
      vertex  3.830222e+001  3.213938e+001  3.000000e+001
    endloop
  endfacet
  facet normal  8.191522e-001  5.735763e-001  0.000000e+000
    outer loop
      vertex  3.830222e+001  3.213938e+001 -3.000000e+001
      vertex  3.830222e+001  3.213938e+001  3.000000e+001
      vertex  4.330127e+001  2.500000e+001 -3.000000e+001
    endloop
  endfacet
  facet normal  8.191522e-001  5.735763e-001  -0.000000e+000
    outer loop
      vertex  4.330127e+001  2.500000e+001 -3.000000e+001
      vertex  3.830222e+001  3.213938e+001  3.000000e+001
      vertex  4.330127e+001  2.500000e+001  3.000000e+001
    endloop
  endfacet
  facet normal  9.063078e-001  4.226183e-001  0.000000e+000
    outer loop
      vertex  4.330127e+001  2.500000e+001 -3.000000e+001
      vertex  4.330127e+001  2.500000e+001  3.000000e+001
      vertex  4.698463e+001  1.710101e+001 -3.000000e+001
    endloop
  endfacet
  facet normal  9.063078e-001  4.226183e-001  -0.000000e+000
    outer loop
      vertex  4.698463e+001  1.710101e+001 -3.000000e+001
      vertex  4.330127e+001  2.500000e+001  3.000000e+001
      vertex  4.698463e+001  1.710101e+001  3.000000e+001
    endloop
  endfacet
  facet normal  9.659259e-001  2.588190e-001  0.000000e+000
    outer loop
      vertex  4.698463e+001  1.710101e+001 -3.000000e+001
      vertex  4.698463e+001  1.710101e+001  3.000000e+001
      vertex  4.924039e+001  8.682409e+000 -3.000000e+001
    endloop
  endfacet
  facet normal  9.659259e-001  2.588190e-001  -0.000000e+000
    outer loop
      vertex  4.924039e+001  8.682409e+000 -3.000000e+001
      vertex  4.698463e+001  1.710101e+001  3.000000e+001
      vertex  4.924039e+001  8.682409e+000  3.000000e+001
    endloop
  endfacet
  facet normal  9.961947e-001  8.715581e-002  0.000000e+000
    outer loop
      vertex  4.924039e+001  8.682409e+000 -3.000000e+001
      vertex  4.924039e+001  8.682409e+000  3.000000e+001
      vertex  5.000000e+001  0.000000e+000 -3.000000e+001
    endloop
  endfacet
  facet normal  9.961947e-001  8.715581e-002  -0.000000e+000
    outer loop
      vertex  5.000000e+001  0.000000e+000 -3.000000e+001
      vertex  4.924039e+001  8.682409e+000  3.000000e+001
      vertex  5.000000e+001  0.000000e+000  3.000000e+001
    endloop
  endfacet
endsolid CATIA STL
